# xmcd
#
# Track frame offsets:
#	150
#	13319
#	26401
#	39550
#	50440
#	62889
#	74888
#	83261
#	93894
#	106079
#	117946
#	130677
#	142655
#	152945
#	164125
#	175168
#	187632
#	200197
#	212847
#	224116
#
# Disc length: 3147 seconds
#
# Revision: 0
# Processed by: cddbd v1.5.2PL0 Copyright (c) Steve Scherf et al.
# Submitted via: audiograbber 1.83.01
#
DISCID=210c4914
DTITLE=Wells, Kitty - The Absolutely Essential - CD2
DYEAR=2017
DGENRE=Country
TTITLE0=Making Believe
TTITLE1=One By One (with Red Foley)
TTITLE2=How Far Is Heaven? (with Carol Sue)
TTITLE3=Searching (For Someone Like You)
TTITLE4=You And Me (with Red Foley)
TTITLE5=Repenting
TTITLE6=No One But You (with Red Foley)
TTITLE7=I'm Counting On You
TTITLE8=Oh, So Many Years (with Webb Pierce)
TTITLE9=Three Ways (To Love You)
TTITLE10=(I'll Always Be Your) Fraulein
TTITLE11=Stubborn Heart
TTITLE12=He's Lost His Love For Me
TTITLE13=She's No Angel
TTITLE14=One Week Later (with Webb Pierce)
TTITLE15=Touch And Go Heart
TTITLE16=Jealousy
TTITLE17=The Waltz Of The Angels
TTITLE18=Mommy For A Day
TTITLE19=All The Time
EXTD=
EXTT0=
EXTT1=
EXTT2=
EXTT3=
EXTT4=
EXTT5=
EXTT6=
EXTT7=
EXTT8=
EXTT9=
EXTT10=
EXTT11=
EXTT12=
EXTT13=
EXTT14=
EXTT15=
EXTT16=
EXTT17=
EXTT18=
EXTT19=
PLAYORDER=
